<svg xmlns="http://www.w3.org/2000/svg" xmlns:xlink="http://www.w3.org/1999/xlink" viewBox="0 0 48.71 19.05">
    <defs>
        <style>.cls-1{font-size:17.58px;fill:#6fa5d9;font-family:Raleway-Bold, Raleway;font-weight:700;}.cls-2{letter-spacing:-0.01em;}.cls-3{fill:url(#linear-gradient);}
        </style>
        <linearGradient id="linear-gradient" x1="1.3" y1="8.88" x2="48.55" y2="8.88" gradientUnits="userSpaceOnUse">
        <stop offset="0" stop-color="#6348b0"/><stop offset="0.95" stop-color="#423075"/></linearGradient>
    </defs><g id="Layer_2" data-name="Layer 2"><g id="BACKGROUND"><text class="cls-1" transform="translate(0 15.03)">
    <tspan class="cls-2">P</tspan><tspan x="10.79" y="0">ostIt</tspan></text><path class="cls-3" d="M1.3,15V2.55H6.59a3.51,3.51,0,0,1,1.59.36,4.11,4.11,0,0,1,1.26.95,4.58,4.58,0,0,1,.83,1.33,4.22,4.22,0,0,1,.29,1.51,4.32,4.32,0,0,1-.28,1.54,4.11,4.11,0,0,1-.79,1.32,3.78,3.78,0,0,1-1.23.93,3.49,3.49,0,0,1-1.58.36H3.73V15ZM3.73,8.72H6.54a1.39,1.39,0,0,0,1.12-.55A2.28,2.28,0,0,0,8.1,6.7,2.35,2.35,0,0,0,8,5.84a1.92,1.92,0,0,0-.37-.64,1.55,1.55,0,0,0-.53-.39,1.58,1.58,0,0,0-.63-.13H3.73Z"/><path class="cls-3" d="M16.12,15.21a5,5,0,0,1-2-.39,4.55,4.55,0,0,1-2.48-2.57,5,5,0,0,1-.33-1.81,5.12,5.12,0,0,1,.33-1.83,4.56,4.56,0,0,1,1-1.52,4.33,4.33,0,0,1,1.52-1,5,5,0,0,1,2-.39,4.94,4.94,0,0,1,2,.39,4.38,4.38,0,0,1,1.51,1,4.56,4.56,0,0,1,1,1.52,5.12,5.12,0,0,1,.34,1.83,5,5,0,0,1-.34,1.81,4.59,4.59,0,0,1-1,1.52,4.45,4.45,0,0,1-1.51,1.05A5,5,0,0,1,16.12,15.21Zm-2.41-4.77a3.1,3.1,0,0,0,.19,1.12,2.7,2.7,0,0,0,.51.87,2.37,2.37,0,0,0,.76.57,2.36,2.36,0,0,0,1.9,0,2.37,2.37,0,0,0,.76-.57,2.64,2.64,0,0,0,.51-.88,3.15,3.15,0,0,0,.19-1.13,3.07,3.07,0,0,0-.19-1.1,2.55,2.55,0,0,0-.51-.88,2.12,2.12,0,0,0-.76-.57,2.17,2.17,0,0,0-.95-.21,2,2,0,0,0-1,.22,2.27,2.27,0,0,0-.76.58,2.5,2.5,0,0,0-.51.87A3.08,3.08,0,0,0,13.71,10.44Z"/><path class="cls-3" d="M26,15.21a7.34,7.34,0,0,1-2.27-.37,5.57,5.57,0,0,1-1.9-1.06l.88-1.48a7.75,7.75,0,0,0,1.64.91,4.37,4.37,0,0,0,1.6.31,2,2,0,0,0,1.1-.27.84.84,0,0,0,.41-.75.75.75,0,0,0-.48-.72,10.33,10.33,0,0,0-1.54-.53c-.6-.16-1.11-.32-1.53-.47a4.19,4.19,0,0,1-1-.52,1.88,1.88,0,0,1-.57-.67,2.24,2.24,0,0,1-.17-.91,2.84,2.84,0,0,1,.27-1.26,2.66,2.66,0,0,1,.77-1,3.51,3.51,0,0,1,1.15-.61,4.66,4.66,0,0,1,1.43-.21,6.11,6.11,0,0,1,1.94.3,4.59,4.59,0,0,1,1.66,1l-.95,1.42a5.25,5.25,0,0,0-1.36-.77,3.58,3.58,0,0,0-1.31-.25,1.83,1.83,0,0,0-1,.25.85.85,0,0,0-.4.79.79.79,0,0,0,.09.4,1,1,0,0,0,.31.29,2.94,2.94,0,0,0,.55.23,8.92,8.92,0,0,0,.86.24c.63.16,1.17.33,1.62.49a4.77,4.77,0,0,1,1.11.56,2,2,0,0,1,.63.73,2.2,2.2,0,0,1,.21,1,2.55,2.55,0,0,1-1,2.13A4.29,4.29,0,0,1,26,15.21Z"/><path class="cls-3" d="M36.77,14.55a8.25,8.25,0,0,1-1.16.43,4.82,4.82,0,0,1-1.44.21,3.05,3.05,0,0,1-.92-.13,2,2,0,0,1-.76-.39A1.92,1.92,0,0,1,32,14a2.55,2.55,0,0,1-.2-1.05V7.63H30.57V5.82h1.21v-3h2.36v3h1.93V7.63H34.14v4.5a.82.82,0,0,0,.25.69A1,1,0,0,0,35,13a2.28,2.28,0,0,0,.72-.13l.56-.21Z"/><path class="cls-3" d="M38.23,15V2.55h2.43V15Z"/><path class="cls-3" d="M48.55,14.55a8.75,8.75,0,0,1-1.16.43,4.92,4.92,0,0,1-1.44.21,3,3,0,0,1-.92-.13,2,2,0,0,1-.76-.39,2,2,0,0,1-.52-.7,2.56,2.56,0,0,1-.19-1.05V7.63H42.35V5.82h1.21v-3h2.35v3h1.94V7.63H45.91v4.5a.82.82,0,0,0,.26.69,1,1,0,0,0,.62.21,2.18,2.18,0,0,0,.72-.13l.57-.21Z"/></g></g>
</svg>